<svg width="512" height="512" viewBox="0 0 512 512" fill="none" xmlns="http://www.w3.org/2000/svg">
<path d="M448.896 285.906H446.775V111.203C446.775 106.781 443.193 103.203 438.775 103.203C434.357 103.203 430.775 106.781 430.775 111.203V285.906H423.716V283.758C423.716 255.773 401.271 233.008 373.685 233.008H138.314C110.728 233.008 88.2825 255.773 88.2825 283.758V285.906H81.2239V111.203C81.2239 106.781 77.6418 103.203 73.2239 103.203C68.8059 103.203 65.2239 106.781 65.2239 111.203V285.906H63.1067C54.2825 285.906 47.1067 293.086 47.1067 301.906V351.102C47.1067 359.922 54.2825 367.102 63.1067 367.102H88.2825V369.25C88.2825 397.234 110.728 420 138.314 420H204.845C208.591 420 211.97 417.773 213.435 414.383L217.56 405.031C224.376 389.562 239.466 379.57 256.001 379.57C272.532 379.57 287.622 389.562 294.439 405.031L298.54 414.328C300.029 417.773 303.407 420 307.154 420H373.685C401.271 420 423.716 397.234 423.716 369.25V367.102H448.896C457.72 367.102 464.896 359.922 464.896 351.102V301.906C464.896 293.086 457.72 285.906 448.896 285.906ZM88.2825 351.102H63.1067V301.906H88.2825V351.102ZM407.716 367.102V369.25C407.716 388.414 392.45 404 373.685 404H311.47L309.079 398.578C299.704 377.312 278.872 363.57 256.001 363.57C233.13 363.57 212.294 377.312 202.919 398.578L200.529 404H138.314C119.548 404 104.282 388.414 104.282 369.25V367.102V327.227H199.126L210.4 342.141C212.24 344.602 215.021 346.008 218.032 346.008H293.966C296.978 346.008 299.759 344.602 301.583 342.164L312.872 327.227H407.716V367.102ZM407.716 285.906V311.227H309.626C306.638 311.227 303.865 312.625 302.005 315.07L290.716 330.008H221.282L209.982 315.055C208.134 312.625 205.361 311.227 202.372 311.227H104.282V285.906V283.758C104.282 264.594 119.548 249.008 138.314 249.008H373.685C392.45 249.008 407.716 264.594 407.716 283.758V285.906ZM448.896 351.102H423.716V301.906H448.896V351.102Z" fill="black"/>
<path d="M294.892 278.453H217.107C212.689 278.453 209.107 282.031 209.107 286.453C209.107 290.875 212.689 294.453 217.107 294.453H294.892C299.31 294.453 302.892 290.875 302.892 286.453C302.892 282.031 299.31 278.453 294.892 278.453ZM73.2239 68C83.7513 68 93.5364 72.9531 100.068 81.5781C101.642 83.6562 104.033 84.75 106.454 84.75C108.134 84.75 109.829 84.2187 111.275 83.125C114.798 80.4609 115.493 75.4453 112.826 71.9219C103.24 59.2578 88.806 52 73.2239 52C57.638 52 43.2044 59.2578 33.6224 71.9219C30.9544 75.4453 31.6497 80.4609 35.1732 83.1328C38.6966 85.7812 43.7083 85.0937 46.3802 81.5781C52.9114 72.9453 62.6927 68 73.2239 68Z" fill="black"/>
<path d="M73.2239 75.7188C64.8802 75.7188 57.138 79.625 51.9896 86.4297C49.3216 89.9531 50.0169 94.9687 53.5404 97.6406C54.9857 98.7344 56.681 99.2578 58.3607 99.2578C60.7825 99.2578 63.1771 98.1641 64.7474 96.0859C68.9466 90.5391 77.4935 90.5391 81.7005 96.0859C84.3646 99.6016 89.3841 100.297 92.9075 97.6328C96.431 94.9688 97.1263 89.9531 94.4583 86.4297C89.3021 79.625 81.5638 75.7188 73.2239 75.7188ZM478.38 71.9219C468.794 59.2578 454.361 52 438.775 52C423.193 52 408.759 59.2578 399.173 71.9219C396.505 75.4453 397.201 80.4609 400.724 83.125C404.251 85.7891 409.263 85.0938 411.931 81.5781C418.462 72.9531 428.247 68 438.775 68C449.302 68 459.091 72.9531 465.622 81.5781C467.197 83.6562 469.587 84.75 472.009 84.75C473.689 84.75 475.384 84.2187 476.829 83.125C480.353 80.4609 481.048 75.4453 478.38 71.9219Z" fill="black"/>
<path d="M430.302 96.0859C434.505 90.5391 443.048 90.5391 447.251 96.0859C448.822 98.1641 451.216 99.2578 453.638 99.2578C455.318 99.2578 457.013 98.7266 458.458 97.6406C461.982 94.9687 462.677 89.9531 460.009 86.4297C454.861 79.625 447.122 75.7188 438.779 75.7188C430.435 75.7188 422.693 79.625 417.544 86.4297C414.876 89.9531 415.572 94.9687 419.095 97.6406C422.622 100.305 427.642 99.6016 430.302 96.0859Z" fill="black"/>
</svg>
