<?xml version="1.0" encoding="UTF-8" standalone="no"?><!DOCTYPE svg PUBLIC "-//W3C//DTD SVG 1.1//EN" "http://www.w3.org/Graphics/SVG/1.1/DTD/svg11.dtd"><svg width="100%" height="100%" viewBox="0 0 24 24" version="1.1" xmlns="http://www.w3.org/2000/svg" xmlns:xlink="http://www.w3.org/1999/xlink" xml:space="preserve" xmlns:serif="http://www.serif.com/" style="fill-rule:evenodd;clip-rule:evenodd;stroke-linejoin:round;stroke-miterlimit:2;"><path d="M17.34,5.46c-0.658,0 -1.2,0.542 -1.2,1.2c0,0.658 0.542,1.2 1.2,1.2c0.658,0 1.2,-0.542 1.2,-1.2c0,-0.658 -0.542,-1.2 -1.2,-1.2Zm4.6,2.42c-0.019,-0.83 -0.175,-1.651 -0.46,-2.43c-0.254,-0.667 -0.65,-1.271 -1.16,-1.77c-0.495,-0.513 -1.1,-0.906 -1.77,-1.15c-0.777,-0.294 -1.599,-0.453 -2.43,-0.47c-1.06,-0.06 -1.4,-0.06 -4.12,-0.06c-2.72,0 -3.06,0 -4.12,0.06c-0.831,0.017 -1.653,0.176 -2.43,0.47c-0.668,0.247 -1.273,0.64 -1.77,1.15c-0.513,0.495 -0.906,1.1 -1.15,1.77c-0.294,0.777 -0.453,1.599 -0.47,2.43c-0.06,1.06 -0.06,1.4 -0.06,4.12c0,2.72 0,3.06 0.06,4.12c0.017,0.831 0.176,1.653 0.47,2.43c0.244,0.67 0.637,1.275 1.15,1.77c0.497,0.51 1.102,0.903 1.77,1.15c0.777,0.294 1.599,0.453 2.43,0.47c1.06,0.06 1.4,0.06 4.12,0.06c2.72,0 3.06,0 4.12,-0.06c0.831,-0.017 1.653,-0.176 2.43,-0.47c0.67,-0.244 1.275,-0.637 1.77,-1.15c0.512,-0.497 0.908,-1.102 1.16,-1.77c0.285,-0.779 0.441,-1.6 0.46,-2.43c0,-1.06 0.06,-1.4 0.06,-4.12c0,-2.72 0,-3.06 -0.06,-4.12Zm-1.8,8.12c-0.007,0.635 -0.122,1.264 -0.34,1.86c-0.16,0.435 -0.416,0.828 -0.75,1.15c-0.324,0.33 -0.717,0.586 -1.15,0.75c-0.596,0.218 -1.225,0.333 -1.86,0.34c-1,0.05 -1.37,0.06 -4,0.06c-2.63,0 -3,0 -4,-0.06c-0.659,0.012 -1.315,-0.089 -1.94,-0.3c-0.414,-0.172 -0.789,-0.427 -1.1,-0.75c-0.332,-0.321 -0.585,-0.715 -0.74,-1.15c-0.244,-0.605 -0.38,-1.248 -0.4,-1.9c0,-1 -0.06,-1.37 -0.06,-4c0,-2.63 0,-3 0.06,-4c0.004,-0.649 0.123,-1.292 0.35,-1.9c0.176,-0.422 0.446,-0.798 0.79,-1.1c0.304,-0.344 0.679,-0.617 1.1,-0.8c0.61,-0.22 1.252,-0.335 1.9,-0.34c1,0 1.37,-0.06 4,-0.06c2.63,0 3,0 4,0.06c0.635,0.007 1.264,0.122 1.86,0.34c0.454,0.169 0.862,0.443 1.19,0.8c0.328,0.307 0.584,0.683 0.75,1.1c0.222,0.609 0.337,1.252 0.34,1.9c0.05,1 0.06,1.37 0.06,4c0,2.63 -0.01,3 -0.06,4Zm-8.14,-9.13c-2.81,0.005 -5.12,2.32 -5.12,5.13c0,2.814 2.316,5.13 5.13,5.13c2.814,0 5.13,-2.316 5.13,-5.13c0,-0.003 0,-0.007 0,-0.01c0,-2.809 -2.311,-5.12 -5.12,-5.12c-0.007,0 -0.013,0 -0.02,0Zm0,8.46c-1.827,0 -3.33,-1.503 -3.33,-3.33c0,-1.827 1.503,-3.33 3.33,-3.33c1.827,0 3.33,1.503 3.33,3.33c0,1.827 -1.503,3.33 -3.33,3.33Z" style="fill:#fff;fill-rule:nonzero;"/></svg>