<svg width="512" height="512" viewBox="0 0 512 512" fill="none" xmlns="http://www.w3.org/2000/svg">
<path d="M211.968 406.049H300.032C302.295 406.049 304.466 405.15 306.066 403.55C307.666 401.949 308.565 399.779 308.565 397.516C308.565 395.253 307.666 393.082 306.066 391.482C304.466 389.881 302.295 388.982 300.032 388.982H211.968C209.705 388.982 207.534 389.881 205.934 391.482C204.334 393.082 203.435 395.253 203.435 397.516C203.435 399.779 204.334 401.949 205.934 403.55C207.534 405.15 209.705 406.049 211.968 406.049ZM211.968 435.6H300.032C302.295 435.6 304.466 434.701 306.066 433.101C307.666 431.5 308.565 429.33 308.565 427.067C308.565 424.804 307.666 422.633 306.066 421.033C304.466 419.432 302.295 418.533 300.032 418.533H211.968C209.705 418.533 207.534 419.432 205.934 421.033C204.334 422.633 203.435 424.804 203.435 427.067C203.435 429.33 204.334 431.5 205.934 433.101C207.534 434.701 209.705 435.6 211.968 435.6ZM256 68.0011C258.263 68.0011 260.434 67.102 262.034 65.5017C263.634 63.9014 264.533 61.7309 264.533 59.4677V34.5333C264.533 32.2702 263.634 30.0997 262.034 28.4994C260.434 26.899 258.263 26 256 26C253.737 26 251.566 26.899 249.966 28.4994C248.366 30.0997 247.467 32.2702 247.467 34.5333V59.4677C247.467 61.7309 248.366 63.9014 249.966 65.5017C251.566 67.102 253.737 68.0011 256 68.0011ZM436.437 206.437C436.437 204.174 435.538 202.004 433.938 200.403C432.338 198.803 430.167 197.904 427.904 197.904H402.97C400.706 197.904 398.536 198.803 396.936 200.403C395.335 202.004 394.436 204.174 394.436 206.437C394.436 208.701 395.335 210.871 396.936 212.471C398.536 214.072 400.706 214.971 402.97 214.971H427.904C430.167 214.971 432.338 214.072 433.938 212.471C435.538 210.871 436.437 208.701 436.437 206.437ZM75.5626 206.437C75.5626 208.701 76.4617 210.871 78.062 212.471C79.6623 214.072 81.8328 214.971 84.096 214.971H109.03C111.294 214.971 113.464 214.072 115.064 212.471C116.665 210.871 117.564 208.701 117.564 206.437C117.564 204.174 116.665 202.004 115.064 200.403C113.464 198.803 111.294 197.904 109.03 197.904H84.096C81.8328 197.904 79.6623 198.803 78.062 200.403C76.4617 202.004 75.5626 204.174 75.5626 206.437ZM371.524 78.8469L353.894 96.4768C353.079 97.264 352.429 98.2056 351.982 99.2467C351.535 100.288 351.299 101.408 351.29 102.541C351.28 103.674 351.496 104.797 351.925 105.846C352.354 106.895 352.987 107.847 353.789 108.649C354.59 109.45 355.543 110.084 356.591 110.513C357.64 110.942 358.764 111.158 359.897 111.148C361.03 111.138 362.149 110.902 363.191 110.455C364.232 110.008 365.173 109.358 365.96 108.543L383.59 90.9131C384.405 90.1259 385.055 89.1843 385.503 88.1432C385.95 87.1021 386.185 85.9823 386.195 84.8493C386.205 83.7162 385.989 82.5926 385.56 81.5439C385.131 80.4951 384.497 79.5424 383.696 78.7412C382.895 77.9399 381.942 77.3063 380.893 76.8773C379.845 76.4482 378.721 76.2323 377.588 76.2421C376.455 76.252 375.335 76.4874 374.294 76.9346C373.253 77.3818 372.311 78.0319 371.524 78.8469ZM128.41 334.028C129.2 334.823 130.14 335.454 131.176 335.885C132.211 336.315 133.321 336.537 134.443 336.537C135.564 336.537 136.674 336.315 137.71 335.885C138.745 335.454 139.685 334.823 140.476 334.028L158.106 316.398C158.921 315.611 159.571 314.669 160.018 313.628C160.465 312.587 160.701 311.467 160.71 310.334C160.72 309.201 160.504 308.077 160.075 307.029C159.646 305.98 159.013 305.027 158.211 304.226C157.41 303.425 156.457 302.791 155.409 302.362C154.36 301.933 153.236 301.717 152.103 301.727C150.97 301.737 149.85 301.972 148.809 302.419C147.768 302.867 146.827 303.517 146.039 304.332L128.41 321.962C126.81 323.562 125.911 325.732 125.911 327.995C125.911 330.257 126.81 332.428 128.41 334.028ZM353.894 304.332C352.295 305.932 351.396 308.102 351.396 310.365C351.396 312.628 352.295 314.798 353.894 316.398L371.524 334.028C372.315 334.823 373.255 335.454 374.29 335.885C375.326 336.315 376.436 336.537 377.557 336.537C378.679 336.537 379.789 336.315 380.824 335.885C381.86 335.454 382.8 334.823 383.59 334.028C385.19 332.428 386.089 330.257 386.089 327.995C386.089 325.732 385.19 323.562 383.59 321.962L365.96 304.332C364.36 302.732 362.19 301.833 359.927 301.833C357.665 301.833 355.495 302.732 353.894 304.332ZM140.476 78.8469C139.689 78.0319 138.747 77.3818 137.706 76.9346C136.665 76.4874 135.545 76.252 134.412 76.2421C133.279 76.2323 132.155 76.4482 131.106 76.8773C130.058 77.3063 129.105 77.9399 128.304 78.7412C127.503 79.5424 126.869 80.4951 126.44 81.5439C126.011 82.5926 125.795 83.7162 125.805 84.8493C125.815 85.9823 126.05 87.1021 126.497 88.1432C126.944 89.1843 127.595 90.1259 128.41 90.9131L146.039 108.543C146.83 109.338 147.77 109.969 148.805 110.4C149.841 110.83 150.951 111.052 152.072 111.052C153.194 111.052 154.304 110.83 155.34 110.4C156.375 109.969 157.315 109.338 158.106 108.543C159.705 106.943 160.604 104.773 160.604 102.51C160.604 100.247 159.705 98.077 158.106 96.4768L140.476 78.8469ZM199.765 79.1883C201.168 79.1872 202.549 78.8402 203.786 78.1781C205.023 77.5159 206.078 76.5589 206.857 75.3919C207.636 74.2249 208.115 72.8839 208.252 71.4876C208.388 70.0912 208.179 68.6827 207.642 67.3867L198.101 44.3467C197.233 42.2555 195.57 40.5947 193.478 39.7298C191.385 38.8648 189.035 38.8665 186.944 39.7344C184.853 40.6023 183.192 42.2654 182.327 44.3578C181.462 46.4502 181.464 48.8006 182.332 50.8917L191.872 73.9232C193.237 77.2 196.412 79.1883 199.765 79.1883ZM411.554 132.778L388.514 142.309C387.479 142.739 386.538 143.367 385.745 144.16C384.953 144.953 384.325 145.894 383.896 146.93C383.467 147.965 383.247 149.075 383.247 150.196C383.247 151.317 383.468 152.427 383.898 153.462C384.327 154.498 384.956 155.439 385.748 156.231C386.541 157.023 387.482 157.652 388.518 158.081C389.554 158.509 390.664 158.73 391.784 158.729C392.905 158.729 394.015 158.508 395.051 158.079L418.091 148.539C420.182 147.672 421.843 146.01 422.709 143.918C423.575 141.827 423.574 139.477 422.707 137.386C421.84 135.294 420.178 133.633 418.087 132.767C415.995 131.902 413.645 131.902 411.554 132.769V132.778ZM116.949 254.787L93.9093 264.327C92.8738 264.757 91.9331 265.386 91.1407 266.178C90.3483 266.971 89.7198 267.912 89.2912 268.948C88.8625 269.984 88.642 271.093 88.6422 272.214C88.6425 273.335 88.8636 274.445 89.2928 275.481C90.1596 277.572 91.8216 279.233 93.9132 280.099C94.9488 280.527 96.0588 280.748 97.1797 280.748C98.3005 280.747 99.4104 280.526 100.446 280.097L123.486 270.557C124.521 270.128 125.462 269.499 126.254 268.706C127.047 267.913 127.675 266.972 128.104 265.936C128.533 264.901 128.753 263.791 128.753 262.67C128.753 261.549 128.532 260.439 128.102 259.404C127.673 258.368 127.044 257.428 126.251 256.635C125.459 255.843 124.518 255.214 123.482 254.786C122.446 254.357 121.336 254.136 120.215 254.137C119.095 254.137 117.985 254.358 116.949 254.787ZM312.235 79.1883C315.588 79.1883 318.763 77.2 320.128 73.9232L329.668 50.8832C330.097 49.8478 330.317 48.738 330.317 47.6174C330.317 46.4967 330.096 45.3871 329.667 44.3518C329.238 43.3165 328.609 42.3759 327.816 41.5837C327.024 40.7914 326.083 40.163 325.047 39.7344C324.012 39.3058 322.902 39.0853 321.782 39.0855C320.661 39.0858 319.551 39.3067 318.516 39.7358C317.481 40.1649 316.54 40.7937 315.748 41.5863C314.956 42.3789 314.327 43.3198 313.899 44.3552L304.358 67.3952C303.823 68.6908 303.615 70.0984 303.753 71.4936C303.89 72.8887 304.37 74.2285 305.148 75.3943C305.927 76.5601 306.981 77.5162 308.217 78.1779C309.453 78.8396 310.833 79.1866 312.235 79.1883ZM388.523 270.565L411.554 280.106C412.59 280.534 413.699 280.755 414.82 280.755C415.941 280.754 417.05 280.533 418.085 280.104C419.121 279.675 420.061 279.046 420.854 278.254C421.646 277.461 422.274 276.52 422.703 275.485C423.132 274.449 423.352 273.34 423.352 272.219C423.352 271.098 423.131 269.989 422.701 268.953C422.272 267.918 421.644 266.978 420.851 266.185C420.058 265.393 419.118 264.765 418.082 264.336L395.042 254.796C394.007 254.367 392.897 254.147 391.776 254.147C390.656 254.147 389.546 254.368 388.511 254.797C387.475 255.226 386.535 255.855 385.743 256.648C384.95 257.44 384.322 258.381 383.893 259.417C383.465 260.452 383.244 261.562 383.244 262.682C383.245 263.803 383.466 264.913 383.895 265.948C384.324 266.983 384.953 267.924 385.745 268.716C386.538 269.508 387.487 270.137 388.523 270.565ZM100.437 132.769C99.4018 132.34 98.2921 132.12 97.1715 132.12C96.0508 132.12 94.9412 132.341 93.9059 132.77C92.8706 133.2 91.93 133.828 91.1378 134.621C90.3455 135.414 89.7171 136.354 89.2885 137.39C88.8599 138.425 88.6394 139.535 88.6396 140.656C88.6398 141.776 88.8608 142.886 89.2899 143.921C89.719 144.957 90.3478 145.897 91.1404 146.689C91.933 147.482 92.8738 148.11 93.9093 148.539L116.949 158.079C117.985 158.508 119.094 158.728 120.215 158.728C121.336 158.728 122.445 158.507 123.481 158.078C124.516 157.648 125.457 157.02 126.249 156.227C127.041 155.434 127.669 154.494 128.098 153.458C128.527 152.423 128.747 151.313 128.747 150.192C128.747 149.072 128.526 147.962 128.097 146.927C127.668 145.891 127.039 144.951 126.246 144.159C125.454 143.366 124.513 142.738 123.477 142.309L100.437 132.769ZM133.393 202.503C132.826 219.956 135.991 237.329 142.676 253.46C149.362 269.592 159.414 284.111 172.16 296.046C182.018 305.244 189.883 316.368 195.268 328.729C200.687 341.23 203.426 354.431 203.426 367.965C203.426 370.228 204.325 372.398 205.925 373.999C207.526 375.599 209.696 376.498 211.959 376.498H300.023C302.287 376.498 304.457 375.599 306.057 373.999C307.658 372.398 308.557 370.228 308.557 367.965C308.557 340.854 319.991 314.58 339.917 295.884C352.129 284.407 361.866 270.554 368.53 255.177C375.194 239.799 378.643 223.222 378.667 206.463C378.667 172.586 365.15 141.038 340.608 117.657C328.602 106.127 314.355 97.1858 298.752 91.3877C283.149 85.5896 266.521 83.058 249.899 83.9499C186.564 86.9792 135.398 139.058 133.393 202.503ZM235.068 223.231L251.29 233.974C252.686 234.9 254.324 235.394 256 235.394C257.675 235.394 259.314 234.9 260.71 233.974L276.932 223.222L265.992 359.431H246.016L235.068 223.231ZM250.718 100.999C279.962 99.5915 307.712 109.891 328.84 130.013C339.237 139.841 347.508 151.697 353.142 164.848C358.777 177.999 361.655 192.165 361.6 206.471C361.578 220.897 358.607 235.165 352.869 248.4C347.132 261.635 338.748 273.557 328.235 283.434C307.047 303.342 294.058 330.445 291.814 359.431H283.11L295.347 207.12C295.474 205.526 295.151 203.928 294.414 202.509C293.677 201.089 292.557 199.906 291.18 199.093C289.802 198.279 288.225 197.87 286.626 197.91C285.027 197.95 283.472 198.439 282.138 199.321L256 216.618L229.862 199.321C228.529 198.436 226.973 197.944 225.373 197.902C223.773 197.86 222.193 198.269 220.815 199.083C219.437 199.897 218.315 201.082 217.579 202.504C216.843 203.925 216.522 205.525 216.653 207.12L228.89 359.431H220.186C218.04 330.467 205.05 303.377 183.808 283.57C172.837 273.294 164.186 260.795 158.434 246.907C152.682 233.02 149.96 218.065 150.451 203.041C152.175 148.428 196.215 103.611 250.718 100.999Z" fill="black"/>
</svg>
