<svg width="512" height="512" viewBox="0 0 512 512" fill="none" xmlns="http://www.w3.org/2000/svg">
<path d="M425.1 318.417V309.5H416.2V300.583H345V229.25H336.1V220.333H300.5V229.25H291.6V309.5H282.7V318.417H273.8V327.333H264.9V345.167H256V363H229.3V380.833H256V407.583H264.9V425.417H273.8V443.25H282.7V461.083H291.6V470H407.3V461.083H416.2V443.25H425.1V425.417H434V318.417H425.1ZM416.2 425.417H407.3V443.25H398.4V452.167H300.5V443.25H291.6V425.417H282.7V407.583H273.8V345.167H282.7V336.25H291.6V371.917H309.4V238.167H327.2V318.417H407.3V327.333H416.2V425.417ZM78 42H104.7V59.8333H95.8V68.75H78V42ZM95.8 363H104.7V380.833H78V354.083H95.8V363ZM398.4 59.8333H389.5V42H416.2V68.75H398.4V59.8333ZM158.1 59.8333H122.5V42H158.1V59.8333ZM211.5 59.8333H175.9V42H211.5V59.8333ZM264.9 59.8333H229.3V42H264.9V59.8333ZM318.3 59.8333H282.7V42H318.3V59.8333ZM371.7 59.8333H336.1V42H371.7V59.8333ZM122.5 363H158.1V380.833H122.5V363ZM95.8 336.25H78V300.583H95.8V336.25ZM95.8 282.75H78V247.083H95.8V282.75ZM95.8 229.25H78V193.583H95.8V229.25ZM95.8 175.75H78V140.083H95.8V175.75ZM95.8 122.25H78V86.5833H95.8V122.25ZM398.4 247.083H416.2V282.75H398.4V247.083ZM416.2 229.25H398.4V193.583H416.2V229.25ZM416.2 175.75H398.4V140.083H416.2V175.75ZM416.2 122.25H398.4V86.5833H416.2V122.25ZM175.9 363H211.5V380.833H175.9V363ZM122.5 202.5H229.3V193.583H238.2V86.5833H229.3V77.6667H122.5V86.5833H113.6V193.583H122.5V202.5ZM131.4 95.5H220.4V184.667H131.4V95.5ZM122.5 345.167H229.3V336.25H238.2V229.25H229.3V220.333H122.5V229.25H113.6V336.25H122.5V345.167ZM131.4 238.167H220.4V327.333H131.4V238.167ZM371.7 202.5V193.583H380.6V86.5833H371.7V77.6667H264.9V86.5833H256V193.583H264.9V202.5H371.7ZM273.8 95.5H362.8V184.667H273.8V95.5Z" fill="black"/>
</svg>
