<svg width="48" height="44" viewBox="0 0 48 44" fill="none" xmlns="http://www.w3.org/2000/svg">
<path d="M38.5894 43.8748C36.8817 45.0454 25.9244 37.6245 23.8259 37.6082C21.7273 37.5921 10.6467 44.8422 8.95896 43.6453C7.2712 42.4483 11.239 30.1539 10.6067 28.2335C9.97439 26.3131 -0.634606 18.4396 0.0299488 16.5292C0.69465 14.6188 14.1041 14.4413 15.8118 13.2707C17.5195 12.1001 22.0435 -0.0161535 24.1422 1.61695e-05C26.2406 0.0163264 30.5602 12.2011 32.248 13.3981C33.9357 14.5949 47.3407 14.9801 47.9731 16.9005C48.6055 18.8209 37.8656 26.5291 37.2009 28.4395C36.5364 30.3499 40.2971 42.7041 38.5894 43.8748Z" fill="#FFD600"/>
</svg>
