<svg id="SvgjsSvg1012" width="288" height="288" xmlns="http://www.w3.org/2000/svg" version="1.1" xmlns:xlink="http://www.w3.org/1999/xlink" xmlns:svgjs="http://svgjs.com/svgjs"><defs id="SvgjsDefs1013"></defs><g id="SvgjsG1014"><svg xmlns="http://www.w3.org/2000/svg" fill-rule="evenodd" stroke-linejoin="round" stroke-miterlimit="2" clip-rule="evenodd" viewBox="0 0 1024 1018" width="288" height="288"><path fill="#e6d7d2" fill-rule="nonzero" d="M1024,511.999C1024,229.251 794.749,0 512.001,0C229.253,0 0.002,229.251 0.002,511.999C0.002,767.531 187.205,979.358 432.008,1017.81L432.008,660.033L301.974,660.033L301.974,511.999L432.008,511.999L432.008,399.174C432.008,270.868 508.473,199.947 625.403,199.947C681.42,199.947 740.028,209.955 740.028,209.955L740.028,335.957L675.443,335.957C611.867,335.957 591.994,375.413 591.994,415.95L591.994,511.999L733.98,511.999L711.3,660.033L591.994,660.033L591.994,1017.81C836.798,979.43 1024,767.603 1024,511.999Z" class="color191c1f svgShape"></path></svg></g></svg>