<svg id="SvgjsSvg1021" width="288" height="288" xmlns="http://www.w3.org/2000/svg" version="1.1" xmlns:xlink="http://www.w3.org/1999/xlink" xmlns:svgjs="http://svgjs.com/svgjs"><defs id="SvgjsDefs1022"></defs><g id="SvgjsG1023"><svg xmlns="http://www.w3.org/2000/svg" viewBox="0 -960 960 960" width="288" height="288"><path d="M554-407 439-522 217-300l115 115 222-222Zm-72-158 115 115 213-213-115-115-213 213Zm-64-21 200 200-234 234q-19 19-52.5 19T279-152l-11-11-43 43H70l120-120-4-4q-22-22-21.5-55.5T187-355l231-231Zm0 0 237-237q17-17 43-17t43 17l112 112q17 17 16.5 45.5T852-620L618-386 418-586Z" fill="#ad8f86" class="color000 svgShape"></path></svg></g></svg>