<svg id="SvgjsSvg1116" width="288" height="288" xmlns="http://www.w3.org/2000/svg" version="1.1" xmlns:xlink="http://www.w3.org/1999/xlink" xmlns:svgjs="http://svgjs.com/svgjs"><defs id="SvgjsDefs1117"></defs><g id="SvgjsG1118"><svg xmlns="http://www.w3.org/2000/svg" viewBox="0 0 48 48" width="288" height="288"><path d="M6 40v-3h36v3Zm0-29V8h36v3Zm3 20.45q-1.2 0-2.1-.9-.9-.9-.9-2.1v-8.9q0-1.2.9-2.1.9-.9 2.1-.9h30q1.2 0 2.1.9.9.9.9 2.1v8.9q0 1.2-.9 2.1-.9.9-2.1.9Zm0-3h30v-8.9H9v8.9Zm0-8.9v8.9-8.9Z" fill="#ffffff" class="color000 svgShape"></path></svg></g></svg>