<?xml version="1.0" encoding="UTF-8" standalone="no"?>
<!DOCTYPE svg PUBLIC "-//W3C//DTD SVG 1.1//EN" "http://www.w3.org/Graphics/SVG/1.1/DTD/svg11.dtd">
<svg width="100%" height="100%" viewBox="0 0 122 85" version="1.1" xmlns="http://www.w3.org/2000/svg" xmlns:xlink="http://www.w3.org/1999/xlink" xml:space="preserve" xmlns:serif="http://www.serif.com/" style="fill-rule:evenodd;clip-rule:evenodd;stroke-linejoin:round;stroke-miterlimit:2;">
    <path id="youtube-logo-symbol-white" d="M118.9,13.3C121.5,22.8 121.4,42.6 121.4,42.6C121.4,42.6 121.4,62.3 118.9,71.8C117.5,77 113.4,81.1 108.2,82.5C98.7,85 60.7,85 60.7,85C60.7,85 22.8,85 13.2,82.4C8,81 3.9,76.9 2.5,71.7C0,62.3 0,42.5 0,42.5C0,42.5 0,22.8 2.5,13.3C3.9,8.1 8.1,3.9 13.2,2.5C22.7,0 60.7,0 60.7,0C60.7,0 98.7,0 108.2,2.6C113.4,4 117.5,8.1 118.9,13.3ZM48.6,60.7L80.2,42.5L48.6,24.3L48.6,60.7Z" style="fill:rgb(25,28,31);fill-rule:nonzero;"/>
</svg>
